<svg width="703" height="1121" viewBox="0 0 703 1121" fill="none" xmlns="http://www.w3.org/2000/svg">
<path d="M575.659 1102.81C424.97 750.801 351.278 394.873 173.659 823.094C-3.95975 1251.31 659.179 540.566 709.278 940.325C759.376 1340.08 180.139 262.08 159.653 -141.364" stroke="#FFD700" stroke-width="31"/>
<path d="M549.775 1110.52C399.086 758.515 325.394 402.587 147.775 830.808C-29.8437 1259.03 633.295 548.28 683.394 948.039C733.492 1347.8 154.255 269.794 133.77 -133.65" stroke="#DDB900" stroke-width="31"/>
<path d="M527.784 1110.92C377.095 758.91 303.403 402.982 125.784 831.203C-51.8345 1259.42 611.304 548.675 661.403 948.434C711.502 1348.19 132.265 270.189 111.779 -133.255" stroke="#D4AF37" stroke-width="31"/>
<path d="M503.794 1111.35C353.105 759.341 279.413 403.413 101.794 831.634C-75.8245 1259.86 587.314 549.107 637.413 948.865C687.512 1348.62 108.275 270.62 87.7887 -132.824" stroke="#B49214" stroke-width="31"/>
<path d="M477.805 1111.81C327.116 759.808 253.424 403.88 75.8053 832.101C-101.814 1260.32 561.325 549.574 611.424 949.332C661.522 1349.09 82.2854 271.087 61.7995 -132.357" stroke="#917800" stroke-width="31"/>
<path d="M447.817 1112.35C297.128 760.347 223.437 404.419 45.8179 832.64C-131.801 1260.86 531.338 550.112 581.436 949.871C631.535 1349.63 52.2979 271.626 31.8121 -131.818" stroke="#6C5400" stroke-width="31"/>
</svg>
