<svg width="1537" height="1317" viewBox="0 0 1537 1317" fill="none" xmlns="http://www.w3.org/2000/svg">
<path d="M154.401 77.1421C299.917 423.697 368.411 772.732 552.172 357.479C735.933 -57.775 62.7534 624.984 18.4786 233.54C-25.7962 -157.904 537.551 905.475 552.172 1300" stroke="#FFD700" stroke-width="31"/>
<path d="M180.386 70.0598C325.902 416.615 394.396 765.65 578.157 350.396C761.918 -64.8572 88.7385 617.902 44.4637 226.458C0.18894 -164.986 563.536 898.393 578.157 1292.92" stroke="#DDB900" stroke-width="31"/>
<path d="M202.373 70.0598C347.889 416.615 416.383 765.65 600.144 350.396C783.905 -64.8572 110.726 617.902 66.451 226.458C22.1762 -164.986 585.523 898.393 600.144 1292.92" stroke="#D4AF37" stroke-width="31"/>
<path d="M226.359 70.0598C371.876 416.615 440.37 765.65 624.13 350.396C807.891 -64.8572 134.712 617.902 90.4373 226.458C46.1624 -164.986 609.51 898.393 624.13 1292.92" stroke="#B49214" stroke-width="31"/>
<path d="M252.344 70.0598C397.861 416.615 466.355 765.65 650.116 350.396C833.876 -64.8572 160.697 617.902 116.422 226.458C72.1476 -164.986 635.495 898.393 650.116 1292.92" stroke="#917800" stroke-width="31"/>
<path d="M282.327 70.0598C427.844 416.615 496.338 765.65 680.098 350.396C863.859 -64.8572 190.68 617.902 146.405 226.458C102.13 -164.986 665.477 898.393 680.098 1292.92" stroke="#6C5400" stroke-width="31"/>
<path d="M1384.66 1298.81C1233.97 946.801 1160.28 590.873 982.659 1019.09C805.04 1447.31 1468.18 736.566 1518.28 1136.33C1568.38 1536.08 989.139 458.08 968.653 54.6361" stroke="#FFD700" stroke-width="31"/>
<path d="M1358.77 1306.52C1208.09 954.515 1134.39 598.587 956.775 1026.81C779.156 1455.03 1442.3 744.28 1492.39 1144.04C1542.49 1543.8 963.255 465.794 942.769 62.3502" stroke="#DDB900" stroke-width="31"/>
<path d="M1336.78 1306.92C1186.09 954.91 1112.4 598.982 934.784 1027.2C757.166 1455.42 1420.3 744.675 1470.4 1144.43C1520.5 1544.19 941.265 466.189 920.779 62.7454" stroke="#D4AF37" stroke-width="31"/>
<path d="M1312.79 1307.35C1162.1 955.341 1088.41 599.413 910.794 1027.63C733.176 1455.85 1396.31 745.107 1446.41 1144.87C1496.51 1544.62 917.275 466.62 896.789 63.1764" stroke="#B49214" stroke-width="31"/>
<path d="M1286.8 1307.81C1136.12 955.808 1062.42 599.88 884.805 1028.1C707.186 1456.32 1370.33 745.574 1420.42 1145.33C1470.52 1545.09 891.285 467.087 870.8 63.6435" stroke="#917800" stroke-width="31"/>
<path d="M1256.82 1308.35C1106.13 956.347 1032.44 600.419 854.818 1028.64C677.199 1456.86 1340.34 746.112 1390.44 1145.87C1440.53 1545.63 861.298 467.626 840.812 64.1823" stroke="#6C5400" stroke-width="31"/>
</svg>
