<?xml version="1.0" encoding="UTF-8"?><svg id="_レイヤー_2" xmlns="http://www.w3.org/2000/svg" viewBox="0 0 108.24 104.55"><defs><style>.cls-1{fill:#fccf00;}</style></defs><g id="design"><polygon class="cls-1" points="52.59 44.95 53.87 44.41 55.18 43.9 56.58 43.77 57.87 43.06 59.3 43.15 60.66 42.69 62.08 42.86 63.48 42.83 64.89 42.51 66.28 42.77 67.67 43.01 69.04 43.29 70.43 43.48 71.83 43.62 73.12 44.22 74.48 44.54 75.76 45.11 77.23 45.2 78.4 46.03 79.63 46.69 80.91 47.28 82.27 47.73 83.47 48.48 84.44 49.56 85.59 50.36 86.71 51.2 87.72 52.18 88.87 53 89.92 53.92 90.87 54.96 91.98 55.84 92.98 56.78 93.68 57.99 94.85 58.79 95.82 59.78 96.28 61.15 97.23 62.15 97.94 63.32 98.62 64.51 99.16 65.76 99.89 66.91 100.4 68.17 100.75 69.48 101.19 70.77 101.33 72.12 101.49 73.45 101.97 74.82 101.8 76.2 101.55 77.57 100.93 78.82 100.52 80.16 99.43 81.1 98.8 82.31 97.75 83.19 96.88 84.24 96.03 85.36 94.71 85.86 93.65 86.73 92.56 87.6 91.15 87.8 89.92 88.61 88.53 89.04 87.09 89.22 85.65 89.24 84.25 89.63 82.8 89.5 81.36 89.61 79.93 89.49 78.49 89.57 77.06 89.36 75.64 89.17 74.36 89.03 73.14 89.51 71.88 89.61 70.99 90.62 69.72 91.05 68.9 92.04 68.24 93.36 67.29 94.43 66.19 95.39 65.49 96.69 64.46 97.71 63.29 98.56 62.27 99.58 61.19 100.55 59.88 101.18 58.59 101.81 57.45 102.78 56.1 103.1 54.78 103.47 53.51 104.03 52.16 104.34 50.78 104.39 49.4 104.55 48.04 104.15 46.67 104.12 45.28 103.97 44.02 103.38 42.92 102.52 41.71 101.92 40.68 101.03 39.62 100.18 38.72 99.16 37.8 98.14 37.39 96.8 36.35 95.8 36.23 94.36 35.44 93.2 35.25 91.83 34.73 90.56 34.51 89.21 33.93 87.92 33.95 86.53 33.99 85.15 33.45 83.83 33.38 82.45 33.25 81.08 33.4 79.67 33.56 78.26 33.22 76.85 33.49 75.45 33.77 74.06 33.8 72.66 34.19 71.29 34.37 69.91 34.67 68.54 35.01 67.18 35.17 65.77 35.54 64.42 35.99 63.09 36.65 61.84 37.36 60.62 37.78 59.27 38.33 57.96 39.11 56.79 39.96 55.66 40.79 54.53 41.5 53.3 42.58 52.38 43.47 51.29 44.63 50.47 45.63 49.49 46.69 48.58 47.8 47.73 48.97 46.97 50.17 46.27 51.16 45.18 52.59 44.95"/><polygon class="cls-1" points="66.62 34.83 65.32 35.23 64 35.67 62.62 35.73 61.25 35.5 59.94 35.08 58.54 35.04 57.3 34.44 55.94 34.07 54.78 33.31 53.61 32.57 52.77 31.42 51.75 30.51 50.89 29.46 49.72 28.63 49.31 27.25 48.33 26.23 47.8 24.96 47.19 23.72 46.68 22.43 46.28 21.1 46.43 19.67 46.05 18.34 46.03 16.97 45.64 15.6 45.77 14.22 46.36 12.91 46.31 11.5 46.81 10.21 47.38 8.96 47.86 7.67 48.51 6.46 49.56 5.53 50.11 4.2 51.08 3.2 52.41 2.67 53.58 1.99 54.66 1.09 55.92 .52 57.35 .56 58.68 .29 60.04 0 61.39 .33 62.76 .44 64.03 .96 65.31 1.42 66.5 2.06 67.76 2.6 68.91 3.34 69.92 4.27 71.04 5.08 71.91 6.15 72.57 7.37 73.74 8.23 74.04 9.65 74.94 10.73 75.19 12.11 75.84 13.34 76.36 14.63 76.28 16.05 76.5 17.39 76.86 18.74 76.92 20.12 76.61 21.48 76.44 22.83 76.09 24.16 75.61 25.43 75.5 26.86 74.68 27.99 74.03 29.19 73.4 30.43 72.36 31.34 71.33 32.24 70.45 33.33 69.08 33.73 67.91 34.4 66.62 34.83"/><polygon class="cls-1" points="35.67 48.32 34.46 48.96 33.13 49.31 31.89 49.97 30.49 49.94 29.12 50.03 27.77 49.85 26.44 49.55 25.07 49.46 23.79 48.97 22.43 48.65 21.16 48.08 20.14 47.11 19.13 46.18 17.82 45.61 16.84 44.63 16.13 43.42 14.99 42.58 14.27 41.39 13.64 40.16 13.08 38.91 12.39 37.7 11.93 36.4 11.83 35.01 11.38 33.71 11.3 32.35 10.98 31 10.86 29.62 11.29 28.27 11.15 26.87 11.86 25.63 12.21 24.32 12.37 22.89 13.26 21.8 14.14 20.75 14.79 19.51 15.74 18.5 16.88 17.71 17.98 16.85 19.27 16.33 20.68 16.2 21.96 15.75 23.28 15.25 24.66 15.58 26.03 15.5 27.36 15.81 28.74 15.91 29.95 16.6 31.33 16.84 32.57 17.43 33.81 18.07 34.93 18.89 35.87 19.91 36.79 20.93 37.65 22 38.6 22.99 39.57 24 40.29 25.18 40.61 26.56 41.14 27.82 41.74 29.06 42.36 30.31 42.25 31.74 42.58 33.07 42.88 34.42 42.59 35.79 42.83 37.18 42.64 38.56 42.21 39.88 41.65 41.13 41.06 42.36 40.75 43.76 39.92 44.88 38.75 45.69 37.97 46.83 36.97 47.81 35.67 48.32"/><polygon class="cls-1" points="3.98 55.78 5.05 54.88 6.02 53.75 7.36 53.2 8.7 52.66 10.14 52.5 11.57 52.39 13 52.31 14.4 52.65 15.88 52.55 17.17 53.26 18.49 53.79 19.82 54.33 21.1 54.98 22.21 55.9 23.46 56.64 24.47 57.68 25.39 58.8 26.19 59.99 26.9 61.24 27.51 62.53 28.38 63.72 28.46 65.21 29.12 66.52 29.41 67.94 29.38 69.39 29.39 70.84 29.13 72.27 28.37 73.54 28.29 75.05 27.37 76.19 26.51 77.32 25.49 78.31 24.65 79.54 23.2 79.93 22.01 80.73 20.72 81.39 19.31 81.78 17.84 81.56 16.4 81.91 14.96 81.68 13.62 81.08 12.18 80.91 10.89 80.28 9.57 79.73 8.45 78.82 7.07 78.29 6.1 77.2 5.21 76.07 4.22 75.05 3.43 73.87 2.25 72.93 1.75 71.56 1.19 70.23 .67 68.89 .61 67.43 0 66.07 .27 64.62 .25 63.2 .25 61.74 .78 60.39 1.19 59 1.79 57.67 2.86 56.66 3.98 55.78"/><polygon class="cls-1" points="81.55 33.22 81.31 31.8 81.4 30.37 81.47 28.93 81.85 27.54 82.26 26.16 82.7 24.78 83.65 23.66 84.18 22.3 84.96 21.06 85.97 20.02 87.24 19.28 88.41 18.46 89.64 17.72 91.02 17.31 92.37 16.79 93.83 16.97 95.24 16.99 96.67 16.96 98.03 17.4 99.44 17.75 100.64 18.56 101.94 19.21 103.03 20.17 104.07 21.19 104.89 22.39 105.69 23.59 106.17 24.97 106.88 26.22 107.17 27.64 107.83 28.95 107.99 30.4 108.14 31.84 108.24 33.28 108.07 34.73 107.81 36.15 107.42 37.54 107.11 38.95 106.2 40.12 105.97 41.62 104.87 42.62 104.32 44.01 103.09 44.84 102.13 45.92 100.84 46.57 99.56 47.18 98.24 47.71 96.9 48.27 95.45 48.08 94.03 48.3 92.62 48.05 91.23 47.72 89.92 47.14 88.75 46.33 87.34 45.86 86.21 44.94 85.52 43.61 84.64 42.5 83.71 41.41 83.07 40.13 82.25 38.91 82.18 37.42 81.88 36.03 81.69 34.63 81.55 33.22"/></g></svg>