<?xml version="1.0" encoding="UTF-8"?><svg id="_レイヤー_2" xmlns="http://www.w3.org/2000/svg" viewBox="0 0 196.1 90.76"><defs><style>.cls-1,.cls-2{stroke:#fff;stroke-linecap:round;stroke-linejoin:round;stroke-width:4.53px;}.cls-1,.cls-3{fill:#6b2800;}.cls-2,.cls-4{fill:#ffe100;}.cls-3,.cls-4{stroke-width:0px;}</style></defs><g id="_仕上りマスク"><path class="cls-2" d="m37.87,63.34c-6.46.26-12.92.55-19.37.89-.01-5.33-.02-10.66-.03-15.98,6.44-.56,12.9-1.06,19.36-1.48.01,5.52.03,11.05.04,16.57Z"/><path class="cls-2" d="m35.33,82.12c-4.31.05-8.62.1-12.93.15,0-3.53-.02-7.07-.02-10.6,4.31-.15,8.61-.28,12.92-.41,0,3.62.02,7.24.03,10.86Z"/><path class="cls-2" d="m108.21,44.39c-6.63-.07-13.26-.07-19.89,0,0-3.65,0-7.3,0-10.95,6.63-.09,13.27-.09,19.9,0,0,3.65,0,7.3,0,10.95Z"/><path class="cls-2" d="m149.24,45.33c-4.89-.28-9.78-.52-14.67-.72.01-4.49.02-8.98.03-13.48,4.9.26,9.79.57,14.67.94-.01,4.42-.02,8.84-.03,13.26Z"/><path class="cls-1" d="m7.99,88.47c-.15,0-.29-.09-.37-.21-1.77-2.78-3.53-5.53-5.29-8.24-.1-.15-.09-.35.03-.49,3.46-4.18,7.35-9.49,9.78-18.52,1.27-4.7,2.53-9.43,3.79-14.2.05-.2.24-.36.44-.38,9.34-.88,18.71-1.61,28.09-2.19.14,0,.27.04.35.15.09.1.13.24.1.38-1.11,6.76-2.22,13.49-3.32,20.18-.04.23-.23.4-.45.41-7.1.24-14.19.53-21.28.87-.07.32-.21.7-.36,1.13-.1.29-.21.61-.32.93,7.57-.33,15.14-.61,22.73-.84.14,0,.26.05.35.16.09.1.12.24.1.38-.98,6.08-1.96,12.13-2.95,18.16-.04.23-.23.39-.45.39-5.28.02-10.55.04-15.83.05-.1.48-.2.95-.31,1.43-.05.21-.23.36-.45.36-2.94,0-5.88,0-8.82,0-.14,0-.27-.06-.36-.17-.09-.11-.12-.25-.09-.38.99-3.96,1.98-7.95,2.96-11.97-2.93,6.46-6.39,10.81-7.7,12.44-.09.11-.22.17-.37.17,0,0-.02,0-.03,0Zm16.84-9.75c2.11-.04,4.23-.08,6.34-.12.24-1.24.48-2.48.71-3.72-2.09.05-4.18.1-6.27.16-.26,1.23-.52,2.45-.78,3.68Zm-3.6-18.22c3.95-.23,7.9-.44,11.85-.64.16-.8.31-1.6.47-2.4-3.93.21-7.85.43-11.77.68h0c-.19.79-.37,1.57-.56,2.35Zm1.63-6.91c3.86-.27,7.73-.53,11.6-.76.15-.75.29-1.5.44-2.24-3.84.24-7.68.51-11.52.8h0c-.17.74-.35,1.47-.52,2.21Zm22.84,34.77c-.25,0-.46-.21-.46-.46-.08-3.91-.16-7.82-.24-11.73,0-.13.05-.25.13-.34.09-.09.21-.14.33-.15,2.46-.04,4.93-.08,7.4-.12.72-.01,1.6-.28,1.75-1.48,1.93-15.78,3.86-31.66,5.79-47.62.03-.24.22-.43.46-.45,2.58-.15,5.16-.29,7.74-.41.13,0,.26.05.34.14.09.1.13.23.12.37-1.71,18.33-3.41,36.6-5.1,54.78-.45,4.82-2.82,7.47-6.68,7.47-3.86,0-7.71,0-11.57,0Zm-1.64-17.51c-.13,0-.26-.06-.35-.16-.09-.1-.12-.24-.1-.38,1.81-11.57,3.63-23.23,5.45-34.97-1.29,2.12-2.57,4.23-3.86,6.33-.09.14-.24.23-.39.24-.08,0-.15,0-.23-.05-.04-.02-.08-.04-.11-.06-.84-.42-1.63-.82-2.83-1.52-.13.74-.26,1.48-.39,2.22-.04.23-.23.4-.45.41-5.89.4-11.77.86-17.64,1.39-.14.01-.27-.04-.36-.14-.09-.1-.12-.24-.08-.38.12-.5.24-1.01.37-1.52-4.05,2.49-6.5,3.55-8.67,4.43-.05.02-.09.03-.14.04-.1,0-.19-.01-.27-.06-.12-.07-.19-.2-.19-.34.02-2.58.04-5.16.06-7.74,0-.2.14-.4.35-.47,3.91-1.41,9.81-4.16,15.74-9.44.08-.07.18-.12.28-.13,3.26-.35,6.52-.68,9.78-.98.13-.01.25.03.34.12,2.82,2.85,4.77,3.97,9.06,5.25.2-1.29.4-2.57.6-3.86.04-.23.23-.41.45-.43,2.33-.17,4.65-.33,6.98-.47.13,0,.26.04.35.14.09.1.13.23.11.37-1.79,13.92-3.57,27.78-5.36,41.55-.03.24-.23.42-.46.42-2.68.06-5.36.12-8.04.18Zm-10.19-36.87c-.23.21-.46.41-.71.64,0,0-.02.02-.03.02-.84.76-1.89,1.71-3.85,3.3,2.59-.24,5.19-.47,7.79-.68-2.13-1.76-2.53-2.32-3.18-3.25,0-.01-.01-.02-.02-.03,0,0,0,0,0,0Z"/><path class="cls-1" d="m92.79,88.36c-.12,0-.24-.05-.33-.15-.09-.09-.13-.22-.13-.35.07-4.16.13-8.33.2-12.49-5.83,5.78-12.14,9.39-21.78,12.38-.04.01-.09.02-.13.02-.19,0-.36-.12-.43-.31-1.29-3.49-2.58-6.96-3.87-10.43-.05-.13-.04-.28.02-.41.07-.12.18-.21.31-.24,8.05-1.77,13.61-3.81,18.6-6.81-5.82.04-11.63.09-17.45.18-.13,0-.25-.05-.34-.15-.09-.1-.13-.23-.12-.37.23-2.67.46-5.34.69-8.01.02-.25.22-.44.46-.45,8.09-.17,16.18-.27,24.27-.3.01-.73.02-1.46.04-2.19-6.64.03-13.27.1-19.91.23-.13,0-.25-.05-.34-.15-.09-.1-.13-.23-.12-.37.14-1.93.29-3.86.43-5.8.02-.25.22-.45.46-.46,6.53-.15,13.06-.24,19.59-.27.01-.74.02-1.47.04-2.21-7.07.03-14.14.14-21.21.32-.13,0-.25-.05-.34-.15-.09-.1-.13-.23-.12-.37.18-2.23.36-4.45.54-6.68.02-.25.22-.45.46-.46,3.75-.11,7.5-.2,11.26-.27-.06-.18-.12-.36-.18-.53-.25-.74-.51-1.49-.77-2.07-4.05.08-8.1.19-12.15.32-.13,0-.25-.05-.34-.15-.09-.1-.13-.23-.12-.37.2-2.34.41-4.68.61-7.03.02-.25.22-.45.46-.46,2.05-.08,4.1-.15,6.15-.21-.05-.12-.1-.28-.18-.48.14-.07.28-.14.42-.21-.14.06-.29.12-.43.18-.27-.77-.73-2.05-1.41-3.36-.07-.14-.07-.3,0-.45.07-.14.19-.24.34-.27,2.68-.52,5.37-1.02,8.05-1.51.02,0,.05,0,.07,0,.18,0,.35.1.42.28.87,2.01,1.18,3.18,1.78,5.62.69-.01,1.38-.02,2.08-.03.06-1.82.11-3.65.17-5.47,0-.26.21-.47.46-.48,2.41-.03,4.83-.06,7.25-.06.12,0,.24.05.33.14.09.09.14.22.13.35-.01,1.82-.02,3.64-.03,5.46.87,0,1.73,0,2.6,0,0-1.82,0-3.64-.01-5.46,0-.13.05-.25.13-.35.09-.09.21-.14.33-.14,2.43,0,4.87.03,7.3.06.25,0,.46.22.46.48.05,1.82.1,3.65.15,5.47.62,0,1.23.02,1.85.03.99-2.11,1.71-4.81,1.9-5.58.05-.22.24-.36.45-.35.02,0,.05,0,.07,0,2.7.51,5.4,1.03,8.09,1.57.14.03.25.12.33.24.07.13.08.28.04.41-.41,1.22-.96,2.57-1.59,3.92,1.96.06,3.91.12,5.87.2.24,0,.44.21.46.46.19,2.34.39,4.69.58,7.03.01.14-.03.27-.12.37-.09.1-.21.15-.34.15-3.97-.13-7.94-.24-11.91-.31-.07.27-.13.5-.19.71-.21.82-.33,1.27-.59,1.9,3.67.06,7.35.15,11.02.26.24,0,.44.21.46.46.17,2.23.34,4.46.51,6.68.01.14-.03.27-.12.37-.09.1-.21.15-.34.15-7.05-.18-14.1-.29-21.15-.32,0,.74.02,1.47.03,2.21,6.53.03,13.06.12,19.58.27.24,0,.44.21.46.46.14,1.93.27,3.87.41,5.8,0,.13-.03.27-.12.36-.09.1-.21.15-.34.15-6.63-.12-13.27-.2-19.91-.22,0,.73.02,1.46.03,2.19,8.01.03,16.01.12,24.01.29.24,0,.44.2.46.45.22,2.67.44,5.34.66,8.01.01.14-.03.27-.12.37-.09.1-.21.15-.34.15-5.51-.08-11.03-.13-16.55-.17,4.39,2.54,10.57,4.74,17.89,6.36.13.03.25.12.31.24.06.13.07.28.02.41-1.36,3.59-2.71,7.19-4.07,10.8-.07.19-.24.31-.43.31-.04,0-.09,0-.13-.02-7.76-2.49-15.21-7.04-21.54-13.12.06,4.44.11,8.88.17,13.31,0,.13-.05.26-.13.35-.09.09-.21.15-.33.15-3.38,0-6.76,0-10.14,0Zm-.12-49.19c.24.69.73,2.12.88,2.38,3.08-.02,6.16-.02,9.24,0,.4-.97.51-1.36.8-2.63-3.67-.02-7.34-.02-11.01,0,.03.08.06.16.08.24Z"/><path class="cls-1" d="m188.74,88.5c-.08,0-.16-.02-.23-.06-7.42-3.96-13.82-9.2-18.52-15.06-.09-.11-.12-.25-.09-.38.03-.13.11-.25.23-.31,2.03-1.03,4.06-2.05,6.09-3.05-3.49-.14-6.98-.27-10.46-.39.79,4.02,1.59,8.02,2.38,12,.49,2.44.23,4.27-.76,5.46-1.36,1.65-3.74,1.65-4.75,1.65-3.74,0-7.48,0-11.22,0-.2,0-.37-.13-.44-.32-1-3.1-1.99-6.21-2.99-9.33-4,5.66-7.16,8.01-9.25,9.56-.08.06-.18.09-.27.09-.13,0-.26-.06-.35-.16-2.59-3.08-5.17-6.18-7.76-9.3-.09-.11-.13-.25-.11-.4.02-.14.1-.27.22-.34,6.43-3.88,9.85-9.04,10.22-9.62-2.86-.06-5.72-.12-8.58-.17-.24,0-.44-.2-.46-.44-.28-2.95-.55-5.91-.82-8.87-.01-.14.03-.27.12-.37.09-.1.21-.15.34-.15,18.27.46,36.51,1.3,54.69,2.52.21.01.39.16.44.36.76,2.75,1.52,5.48,2.28,8.2.04.13,0,.27-.08.38-.09.1-.22.16-.37.15-3.05-.14-6.1-.27-9.14-.4,1.68,1.52,7.96,6.55,14.47,9.66.11.05.2.15.24.26.04.11.03.23-.03.33-1.54,2.71-3.09,5.46-4.63,8.24-.06.1-.16.18-.28.22-.04.01-.09.02-.13.02Zm-37.94-16.03c.21.12.3.38.21.6-.49,1.23-1,2.5-2.32,4.62,1.98.03,3.96.06,5.93.09.49,0,.86,0,1.09-.28.21-.25.27-.7.16-1.36-.39-2.41-.78-4.82-1.17-7.23-3.58-.1-7.15-.2-10.73-.28,2.28,1.29,4.55,2.57,6.83,3.85Zm32.79-11.93c-.05,0-.11-.02-.16-.04-2.11-.88-5.01-2.08-9.78-4.81.09.38.17.75.26,1.13.03.14,0,.28-.09.38-.09.1-.22.16-.36.15-10.29-.65-20.6-1.17-30.93-1.56-.23,0-.43-.19-.46-.43-.06-.47-.12-.94-.18-1.41-3.19,1.94-5.98,3.04-8.29,3.87-.05.02-.11.03-.16.03-.15,0-.29-.08-.38-.21-1.78-2.67-3.56-5.34-5.34-8.02-.09-.13-.11-.3-.06-.45.05-.15.17-.26.32-.29,2.1-.51,4.28-1.12,7.81-2.82-.99-1.32-2.86-3.23-3.87-4.25-.21-.21-.38-.39-.5-.52-.24.1-.42.21-.59.3-.04.02-.08.05-.12.07-.07.04-.15.06-.23.05-.16,0-.32-.1-.4-.26-1.37-2.58-2.75-5.15-4.12-7.74-.07-.12-.08-.26-.04-.39.04-.13.12-.23.24-.28,4.37-2.03,6.46-4.29,8.24-7.08.08-.13.23-.21.39-.2,0-.02,9.57.91,9.57.93.14.01.27.09.36.22.08.12.11.27.08.41-.15.56-.29.94-.51,1.51,2.39.17,4.78.35,7.17.55,1.63-.32,3.27-.64,4.9-.94.04,0,.08,0,.12,0,.16.01.3.11.39.25.71,1.2,1.51,2.5,3.56,5.13-.21-1.05-.41-2.09-.62-3.14-.03-.14,0-.28.09-.38.09-.1.22-.15.36-.14,6.26.6,12.51,1.29,18.75,2.06.21.02.39.18.44.39.57,2.11,1.13,4.21,1.7,6.3.02.08.02.17,0,.24-.36,1.17-1.21,3.88-3.83,8.31,4.27,2.19,6.81,3.19,9.05,4.04.12.04.21.13.27.24.06.11.07.23.04.34-.88,2.71-1.76,5.43-2.64,8.17-.04.11-.12.21-.23.25-.07.03-.14.04-.21.03Zm-28.26-20.14c-.55,1.11-1.83,3.68-5.1,7.1,4.24.24,8.48.5,12.71.79-.08-.07-.16-.13-.23-.2-1.35-1.16-3.86-3.31-7.36-7.72,0,.01-.01.02-.02.03Zm-18.3-2.61c-.82.59-1.17.82-1.5,1.04-.11.07-.22.14-.34.23.18.17.5.47.9.84,1.19,1.11,2.98,2.77,3.89,3.71.83-.57,1.57-1.13,1.89-1.42-.08-.08-.21-.21-.39-.38-.8-.79-2.43-2.42-4.45-4.03,0-.16,0-.32,0-.48,0,.16,0,.32,0,.48Zm26.41-.53c2.22,2.36,4.18,3.92,5.46,4.88.94-1.57,1.42-2.98,1.81-4.11,0-.03.02-.06.03-.09-2.44-.24-4.87-.47-7.31-.68Zm-22.97-2.14c1.75,1.48,3.8,3.29,4.62,4.05,1.14-1.4,1.6-2.25,2.18-3.62-2.27-.15-4.53-.29-6.8-.43Z"/><path class="cls-1" d="m73.29,14.21c-.8.29-1.92.84-2.37,1.18,2.2-.11,4.4-.21,6.6-.29,0,1.94,0,3.88,0,5.81-4.78.17-9.56.39-14.33.67,0-1,0-1.99,0-2.99,0-3.14,2.16-5.83,5.62-7.53,1.69-.82,2.56-1.27,2.55-1.97,0-.34-.39-.59-.94-.56-.62.03-1.21.38-1.21,1.15-1.99.11-3.99.24-5.98.38,0-4.54,2.91-6.79,7.5-7.07,4.18-.24,6.86,1.92,6.87,5.24,0,2.91-1.25,4.88-4.31,5.97Z"/><path class="cls-1" d="m87.94,21.17c-5.1.09-7.54-3.35-7.55-9.27,0-6.45,2.44-9.48,7.54-9.59,5.1-.11,7.55,2.82,7.55,9.3,0,5.94-2.47,9.48-7.54,9.56Zm0-12.98c-.37,0-.96.54-.96,3.53,0,3.19.62,3.61.96,3.61.34,0,.91-.45.91-3.64,0-2.94-.57-3.5-.92-3.49Z"/><path class="cls-1" d="m108.26,13.74c-.8.24-1.92.72-2.38,1.03,2.2.03,4.4.08,6.61.13,0,1.94,0,3.89,0,5.83-4.78-.12-9.57-.18-14.35-.18v-3.04c0-3.2,2.17-5.78,5.65-7.25,1.69-.71,2.56-1.1,2.56-1.81,0-.34-.39-.62-.94-.63-.62,0-1.21.3-1.21,1.08-2-.02-3.99-.04-5.99-.04,0-4.61,2.93-6.68,7.53-6.6,4.19.07,6.86,2.44,6.86,5.76,0,2.92-1.26,4.81-4.33,5.71Z"/><path class="cls-1" d="m128.81,18.58c0,.92,0,1.85,0,2.78-2.18-.11-4.35-.21-6.53-.3,0-.93,0-1.86,0-2.79-2.31-.1-4.63-.18-6.94-.25,0-1.99,0-3.99,0-5.98,1.63-2.93,3.27-5.85,4.9-8.76,2.87.14,5.73.3,8.59.48,0,2.92-.01,5.84-.02,8.75.49.03.99.06,1.48.09,0,2.02,0,4.04-.01,6.06-.49-.03-.99-.06-1.48-.08Zm-6.28-9.62c-.57,1.04-1.15,2.09-1.72,3.14.57.02,1.14.05,1.71.08,0-1.07,0-2.15,0-3.22Z"/><path class="cls-1" d="m146.4,11.23c-2.16-2.45-5.33-2.08-8.03-1.62-4.41.75-4.81,2.9-4.81,3.58,0,.69.38,2.86,4.79,4.28,2.7.87,5.86,1.78,8.03-.27.7-.66,2.25-1.6,3.06-1.69,1.93-.24,10.91.99,13.88,1.74.62.15,1.23.32,1.84.51,1.37.44,2.74.92,4.14,1.18,1.2.23,2.38.35,3.58.49.85.1,2.04.39,2.66-.23.33-.33.45-.92.44-1.41,0-.49-.1-1.11-.43-1.54-.62-.81-1.81-.86-2.66-1.01-1.2-.21-2.38-.41-3.58-.52-1.4-.12-2.77,0-4.14.08-.61.04-1.23.05-1.85.04-2.97-.04-11.95-.79-13.88-1.36-.81-.25-2.36-1.48-3.05-2.27Z"/><path class="cls-1" d="m45.36,15.68c.77.34,1.44,1.16,2.05,1.73,2.17,2.03,5.33,1.11,8.03.23,4.4-1.43,4.79-3.6,4.79-4.29,0-.68-.4-2.82-4.8-3.55-2.7-.45-5.87-.8-8.03,1.66-.61.69-1.27,1.64-2.04,2.13-.43.28-.95.5-1.43.61-.37.09-.76.13-1.14.16,0-.01-9.22.66-15.98.53,0,0-.82-.09-2.25.35-2.07.59-4.13,1.18-6.2,1.79,0,0-.56.18-.54,1.11-.01.93.55.94.55.94,2.07-.03,4.13-.04,6.2-.03,1.42.04,2.25-.27,2.25-.27,6.75-2.03,15.97-3.36,15.97-3.34.38-.05.76-.09,1.14-.08.49.01,1,.12,1.43.32"/><path class="cls-4" d="m37.87,63.34c-6.46.26-12.92.55-19.37.89-.01-5.33-.02-10.66-.03-15.98,6.44-.56,12.9-1.06,19.36-1.48.01,5.52.03,11.05.04,16.57Z"/><path class="cls-4" d="m35.33,82.12c-4.31.05-8.62.1-12.93.15,0-3.53-.02-7.07-.02-10.6,4.31-.15,8.61-.28,12.92-.41,0,3.62.02,7.24.03,10.86Z"/><path class="cls-4" d="m108.21,44.39c-6.63-.07-13.26-.07-19.89,0,0-3.65,0-7.3,0-10.95,6.63-.09,13.27-.09,19.9,0,0,3.65,0,7.3,0,10.95Z"/><path class="cls-4" d="m149.24,45.33c-4.89-.28-9.78-.52-14.67-.72.01-4.49.02-8.98.03-13.48,4.9.26,9.79.57,14.67.94-.01,4.42-.02,8.84-.03,13.26Z"/><path class="cls-3" d="m7.99,88.47c-.15,0-.29-.09-.37-.21-1.77-2.78-3.53-5.53-5.29-8.24-.1-.15-.09-.35.03-.49,3.46-4.18,7.35-9.49,9.78-18.52,1.27-4.7,2.53-9.43,3.79-14.2.05-.2.24-.36.44-.38,9.34-.88,18.71-1.61,28.09-2.19.14,0,.27.04.35.15.09.1.13.24.1.38-1.11,6.76-2.22,13.49-3.32,20.18-.04.23-.23.4-.45.41-7.1.24-14.19.53-21.28.87-.07.32-.21.7-.36,1.13-.1.29-.21.61-.32.93,7.57-.33,15.14-.61,22.73-.84.14,0,.26.05.35.16.09.1.12.24.1.38-.98,6.08-1.96,12.13-2.95,18.16-.04.23-.23.39-.45.39-5.28.02-10.55.04-15.83.05-.1.48-.2.95-.31,1.43-.05.21-.23.36-.45.36-2.94,0-5.88,0-8.82,0-.14,0-.27-.06-.36-.17-.09-.11-.12-.25-.09-.38.99-3.96,1.98-7.95,2.96-11.97-2.93,6.46-6.39,10.81-7.7,12.44-.09.11-.22.17-.37.17,0,0-.02,0-.03,0Zm16.84-9.75c2.11-.04,4.23-.08,6.34-.12.24-1.24.48-2.48.71-3.72-2.09.05-4.18.1-6.27.16-.26,1.23-.52,2.45-.78,3.68Zm-3.6-18.22c3.95-.23,7.9-.44,11.85-.64.16-.8.31-1.6.47-2.4-3.93.21-7.85.43-11.77.68h0c-.19.79-.37,1.57-.56,2.35Zm1.63-6.91c3.86-.27,7.73-.53,11.6-.76.15-.75.29-1.5.44-2.24-3.84.24-7.68.51-11.52.8h0c-.17.74-.35,1.47-.52,2.21Zm22.84,34.77c-.25,0-.46-.21-.46-.46-.08-3.91-.16-7.82-.24-11.73,0-.13.05-.25.13-.34.09-.09.21-.14.33-.15,2.46-.04,4.93-.08,7.4-.12.72-.01,1.6-.28,1.75-1.48,1.93-15.78,3.86-31.66,5.79-47.62.03-.24.22-.43.46-.45,2.58-.15,5.16-.29,7.74-.41.13,0,.26.05.34.14.09.1.13.23.12.37-1.71,18.33-3.41,36.6-5.1,54.78-.45,4.82-2.82,7.47-6.68,7.47-3.86,0-7.71,0-11.57,0Zm-1.64-17.51c-.13,0-.26-.06-.35-.16-.09-.1-.12-.24-.1-.38,1.81-11.57,3.63-23.23,5.45-34.97-1.29,2.12-2.57,4.23-3.86,6.33-.09.14-.24.23-.39.24-.08,0-.15,0-.23-.05-.04-.02-.08-.04-.11-.06-.84-.42-1.63-.82-2.83-1.52-.13.74-.26,1.48-.39,2.22-.04.23-.23.4-.45.41-5.89.4-11.77.86-17.64,1.39-.14.01-.27-.04-.36-.14-.09-.1-.12-.24-.08-.38.12-.5.24-1.01.37-1.52-4.05,2.49-6.5,3.55-8.67,4.43-.05.02-.09.03-.14.04-.1,0-.19-.01-.27-.06-.12-.07-.19-.2-.19-.34.02-2.58.04-5.16.06-7.74,0-.2.14-.4.35-.47,3.91-1.41,9.81-4.16,15.74-9.44.08-.07.18-.12.28-.13,3.26-.35,6.52-.68,9.78-.98.13-.01.25.03.34.12,2.82,2.85,4.77,3.97,9.06,5.25.2-1.29.4-2.57.6-3.86.04-.23.23-.41.45-.43,2.33-.17,4.65-.33,6.98-.47.13,0,.26.04.35.14.09.1.13.23.11.37-1.79,13.92-3.57,27.78-5.36,41.55-.03.24-.23.42-.46.42-2.68.06-5.36.12-8.04.18Zm-10.19-36.87c-.23.21-.46.41-.71.64,0,0-.02.02-.03.02-.84.76-1.89,1.71-3.85,3.3,2.59-.24,5.19-.47,7.79-.68-2.13-1.76-2.53-2.32-3.18-3.25,0-.01-.01-.02-.02-.03,0,0,0,0,0,0Z"/><path class="cls-3" d="m92.79,88.36c-.12,0-.24-.05-.33-.15-.09-.09-.13-.22-.13-.35.07-4.16.13-8.33.2-12.49-5.83,5.78-12.14,9.39-21.78,12.38-.04.01-.09.02-.13.02-.19,0-.36-.12-.43-.31-1.29-3.49-2.58-6.96-3.87-10.43-.05-.13-.04-.28.02-.41.07-.12.18-.21.31-.24,8.05-1.77,13.61-3.81,18.6-6.81-5.82.04-11.63.09-17.45.18-.13,0-.25-.05-.34-.15-.09-.1-.13-.23-.12-.37.23-2.67.46-5.34.69-8.01.02-.25.22-.44.46-.45,8.09-.17,16.18-.27,24.27-.3.01-.73.02-1.46.04-2.19-6.64.03-13.27.1-19.91.23-.13,0-.25-.05-.34-.15-.09-.1-.13-.23-.12-.37.14-1.93.29-3.86.43-5.8.02-.25.22-.45.46-.46,6.53-.15,13.06-.24,19.59-.27.01-.74.02-1.47.04-2.21-7.07.03-14.14.14-21.21.32-.13,0-.25-.05-.34-.15-.09-.1-.13-.23-.12-.37.18-2.23.36-4.45.54-6.68.02-.25.22-.45.46-.46,3.75-.11,7.5-.2,11.26-.27-.06-.18-.12-.36-.18-.53-.25-.74-.51-1.49-.77-2.07-4.05.08-8.1.19-12.15.32-.13,0-.25-.05-.34-.15-.09-.1-.13-.23-.12-.37.2-2.34.41-4.68.61-7.03.02-.25.22-.45.46-.46,2.05-.08,4.1-.15,6.15-.21-.05-.12-.1-.28-.18-.48.14-.07.28-.14.42-.21-.14.06-.29.12-.43.18-.27-.77-.73-2.05-1.41-3.36-.07-.14-.07-.3,0-.45.07-.14.19-.24.34-.27,2.68-.52,5.37-1.02,8.05-1.51.02,0,.05,0,.07,0,.18,0,.35.1.42.28.87,2.01,1.18,3.18,1.78,5.62.69-.01,1.38-.02,2.08-.03.06-1.82.11-3.65.17-5.47,0-.26.21-.47.46-.48,2.41-.03,4.83-.06,7.25-.06.12,0,.24.05.33.14.09.09.14.22.13.35-.01,1.82-.02,3.64-.03,5.46.87,0,1.73,0,2.6,0,0-1.82,0-3.64-.01-5.46,0-.13.05-.25.13-.35.09-.09.21-.14.33-.14,2.43,0,4.87.03,7.3.06.25,0,.46.22.46.48.05,1.82.1,3.65.15,5.47.62,0,1.23.02,1.85.03.99-2.11,1.71-4.81,1.9-5.58.05-.22.24-.36.45-.35.02,0,.05,0,.07,0,2.7.51,5.4,1.03,8.09,1.57.14.03.25.12.33.24.07.13.08.28.04.41-.41,1.22-.96,2.57-1.59,3.92,1.96.06,3.91.12,5.87.2.24,0,.44.21.46.46.19,2.34.39,4.69.58,7.03.01.14-.03.27-.12.37-.09.1-.21.15-.34.15-3.97-.13-7.94-.24-11.91-.31-.07.27-.13.5-.19.71-.21.82-.33,1.27-.59,1.9,3.67.06,7.35.15,11.02.26.24,0,.44.21.46.46.17,2.23.34,4.46.51,6.68.01.14-.03.27-.12.37-.09.1-.21.15-.34.15-7.05-.18-14.1-.29-21.15-.32,0,.74.02,1.47.03,2.21,6.53.03,13.06.12,19.58.27.24,0,.44.21.46.46.14,1.93.27,3.87.41,5.8,0,.13-.03.27-.12.36-.09.1-.21.15-.34.15-6.63-.12-13.27-.2-19.91-.22,0,.73.02,1.46.03,2.19,8.01.03,16.01.12,24.01.29.24,0,.44.2.46.45.22,2.67.44,5.34.66,8.01.01.14-.03.27-.12.37-.09.1-.21.15-.34.15-5.51-.08-11.03-.13-16.55-.17,4.39,2.54,10.57,4.74,17.89,6.36.13.03.25.12.31.24.06.13.07.28.02.41-1.36,3.59-2.71,7.19-4.07,10.8-.07.19-.24.31-.43.31-.04,0-.09,0-.13-.02-7.76-2.49-15.21-7.04-21.54-13.12.06,4.44.11,8.88.17,13.31,0,.13-.05.26-.13.35-.09.09-.21.15-.33.15-3.38,0-6.76,0-10.14,0Zm-.12-49.19c.24.69.73,2.12.88,2.38,3.08-.02,6.16-.02,9.24,0,.4-.97.51-1.36.8-2.63-3.67-.02-7.34-.02-11.01,0,.03.08.06.16.08.24Z"/><path class="cls-3" d="m188.74,88.5c-.08,0-.16-.02-.23-.06-7.42-3.96-13.82-9.2-18.52-15.06-.09-.11-.12-.25-.09-.38.03-.13.11-.25.23-.31,2.03-1.03,4.06-2.05,6.09-3.05-3.49-.14-6.98-.27-10.46-.39.79,4.02,1.59,8.02,2.38,12,.49,2.44.23,4.27-.76,5.46-1.36,1.65-3.74,1.65-4.75,1.65-3.74,0-7.48,0-11.22,0-.2,0-.37-.13-.44-.32-1-3.1-1.99-6.21-2.99-9.33-4,5.66-7.16,8.01-9.25,9.56-.08.06-.18.09-.27.09-.13,0-.26-.06-.35-.16-2.59-3.08-5.17-6.18-7.76-9.3-.09-.11-.13-.25-.11-.4.02-.14.1-.27.22-.34,6.43-3.88,9.85-9.04,10.22-9.62-2.86-.06-5.72-.12-8.58-.17-.24,0-.44-.2-.46-.44-.28-2.95-.55-5.91-.82-8.87-.01-.14.03-.27.12-.37.09-.1.21-.15.34-.15,18.27.46,36.51,1.3,54.69,2.52.21.01.39.16.44.36.76,2.75,1.52,5.48,2.28,8.2.04.13,0,.27-.08.38-.09.1-.22.16-.37.15-3.05-.14-6.1-.27-9.14-.4,1.68,1.52,7.96,6.55,14.47,9.66.11.05.2.15.24.26.04.11.03.23-.03.33-1.54,2.71-3.09,5.46-4.63,8.24-.06.1-.16.18-.28.22-.04.01-.09.02-.13.02Zm-37.94-16.03c.21.12.3.38.21.6-.49,1.23-1,2.5-2.32,4.62,1.98.03,3.96.06,5.93.09.49,0,.86,0,1.09-.28.21-.25.27-.7.16-1.36-.39-2.41-.78-4.82-1.17-7.23-3.58-.1-7.15-.2-10.73-.28,2.28,1.29,4.55,2.57,6.83,3.85Zm32.79-11.93c-.05,0-.11-.02-.16-.04-2.11-.88-5.01-2.08-9.78-4.81.09.38.17.75.26,1.13.03.14,0,.28-.09.38-.09.1-.22.16-.36.15-10.29-.65-20.6-1.17-30.93-1.56-.23,0-.43-.19-.46-.43-.06-.47-.12-.94-.18-1.41-3.19,1.94-5.98,3.04-8.29,3.87-.05.02-.11.03-.16.03-.15,0-.29-.08-.38-.21-1.78-2.67-3.56-5.34-5.34-8.02-.09-.13-.11-.3-.06-.45.05-.15.17-.26.32-.29,2.1-.51,4.28-1.12,7.81-2.82-.99-1.32-2.86-3.23-3.87-4.25-.21-.21-.38-.39-.5-.52-.24.1-.42.21-.59.3-.04.02-.08.05-.12.07-.07.04-.15.06-.23.05-.16,0-.32-.1-.4-.26-1.37-2.58-2.75-5.15-4.12-7.74-.07-.12-.08-.26-.04-.39.04-.13.12-.23.24-.28,4.37-2.03,6.46-4.29,8.24-7.08.08-.13.23-.21.39-.2,0-.02,9.57.91,9.57.93.14.01.27.09.36.22.08.12.11.27.08.41-.15.56-.29.94-.51,1.51,2.39.17,4.78.35,7.17.55,1.63-.32,3.27-.64,4.9-.94.04,0,.08,0,.12,0,.16.01.3.11.39.25.71,1.2,1.51,2.5,3.56,5.13-.21-1.05-.41-2.09-.62-3.14-.03-.14,0-.28.09-.38.09-.1.22-.15.36-.14,6.26.6,12.51,1.29,18.75,2.06.21.02.39.18.44.39.57,2.11,1.13,4.21,1.7,6.3.02.08.02.17,0,.24-.36,1.17-1.21,3.88-3.83,8.31,4.27,2.19,6.81,3.19,9.05,4.04.12.04.21.13.27.24.06.11.07.23.04.34-.88,2.71-1.76,5.43-2.64,8.17-.04.11-.12.21-.23.25-.07.03-.14.04-.21.03Zm-28.26-20.14c-.55,1.11-1.83,3.68-5.1,7.1,4.24.24,8.48.5,12.71.79-.08-.07-.16-.13-.23-.2-1.35-1.16-3.86-3.31-7.36-7.72,0,.01-.01.02-.02.03Zm-18.3-2.61c-.82.59-1.17.82-1.5,1.04-.11.07-.22.14-.34.23.18.17.5.47.9.84,1.19,1.11,2.98,2.77,3.89,3.71.83-.57,1.57-1.13,1.89-1.42-.08-.08-.21-.21-.39-.38-.8-.79-2.43-2.42-4.45-4.03,0-.16,0-.32,0-.48,0,.16,0,.32,0,.48Zm26.41-.53c2.22,2.36,4.18,3.92,5.46,4.88.94-1.57,1.42-2.98,1.81-4.11,0-.03.02-.06.03-.09-2.44-.24-4.87-.47-7.31-.68Zm-22.97-2.14c1.75,1.48,3.8,3.29,4.62,4.05,1.14-1.4,1.6-2.25,2.18-3.62-2.27-.15-4.53-.29-6.8-.43Z"/><path class="cls-3" d="m73.29,14.21c-.8.29-1.92.84-2.37,1.18,2.2-.11,4.4-.21,6.6-.29,0,1.94,0,3.88,0,5.81-4.78.17-9.56.39-14.33.67,0-1,0-1.99,0-2.99,0-3.14,2.16-5.83,5.62-7.53,1.69-.82,2.56-1.27,2.55-1.97,0-.34-.39-.59-.94-.56-.62.03-1.21.38-1.21,1.15-1.99.11-3.99.24-5.98.38,0-4.54,2.91-6.79,7.5-7.07,4.18-.24,6.86,1.92,6.87,5.24,0,2.91-1.25,4.88-4.31,5.97Z"/><path class="cls-3" d="m87.94,21.17c-5.1.09-7.54-3.35-7.55-9.27,0-6.45,2.44-9.48,7.54-9.59,5.1-.11,7.55,2.82,7.55,9.3,0,5.94-2.47,9.48-7.54,9.56Zm0-12.98c-.37,0-.96.54-.96,3.53,0,3.19.62,3.61.96,3.61.34,0,.91-.45.91-3.64,0-2.94-.57-3.5-.92-3.49Z"/><path class="cls-3" d="m108.26,13.74c-.8.24-1.92.72-2.38,1.03,2.2.03,4.4.08,6.61.13,0,1.94,0,3.89,0,5.83-4.78-.12-9.57-.18-14.35-.18v-3.04c0-3.2,2.17-5.78,5.65-7.25,1.69-.71,2.56-1.1,2.56-1.81,0-.34-.39-.62-.94-.63-.62,0-1.21.3-1.21,1.08-2-.02-3.99-.04-5.99-.04,0-4.61,2.93-6.68,7.53-6.6,4.19.07,6.86,2.44,6.86,5.76,0,2.92-1.26,4.81-4.33,5.71Z"/><path class="cls-3" d="m128.81,18.58c0,.92,0,1.85,0,2.78-2.18-.11-4.35-.21-6.53-.3,0-.93,0-1.86,0-2.79-2.31-.1-4.63-.18-6.94-.25,0-1.99,0-3.99,0-5.98,1.63-2.93,3.27-5.85,4.9-8.76,2.87.14,5.73.3,8.59.48,0,2.92-.01,5.84-.02,8.75.49.03.99.06,1.48.09,0,2.02,0,4.04-.01,6.06-.49-.03-.99-.06-1.48-.08Zm-6.28-9.62c-.57,1.04-1.15,2.09-1.72,3.14.57.02,1.14.05,1.71.08,0-1.07,0-2.15,0-3.22Z"/><path class="cls-3" d="m146.4,11.23c-2.16-2.45-5.33-2.08-8.03-1.62-4.41.75-4.81,2.9-4.81,3.58,0,.69.38,2.86,4.79,4.28,2.7.87,5.86,1.78,8.03-.27.7-.66,2.25-1.6,3.06-1.69,1.93-.24,10.91.99,13.88,1.74.62.15,1.23.32,1.84.51,1.37.44,2.74.92,4.14,1.18,1.2.23,2.38.35,3.58.49.85.1,2.04.39,2.66-.23.33-.33.45-.92.44-1.41,0-.49-.1-1.11-.43-1.54-.62-.81-1.81-.86-2.66-1.01-1.2-.21-2.38-.41-3.58-.52-1.4-.12-2.77,0-4.14.08-.61.04-1.23.05-1.85.04-2.97-.04-11.95-.79-13.88-1.36-.81-.25-2.36-1.48-3.05-2.27Z"/><path class="cls-3" d="m45.36,15.68c.77.34,1.44,1.16,2.05,1.73,2.17,2.03,5.33,1.11,8.03.23,4.4-1.43,4.79-3.6,4.79-4.29,0-.68-.4-2.82-4.8-3.55-2.7-.45-5.87-.8-8.03,1.66-.61.69-1.27,1.64-2.04,2.13-.43.28-.95.5-1.43.61-.37.09-.76.13-1.14.16,0-.01-9.22.66-15.98.53,0,0-.82-.09-2.25.35-2.07.59-4.13,1.18-6.2,1.79,0,0-.56.18-.54,1.11-.01.93.55.94.55.94,2.07-.03,4.13-.04,6.2-.03,1.42.04,2.25-.27,2.25-.27,6.75-2.03,15.97-3.36,15.97-3.34.38-.05.76-.09,1.14-.08.49.01,1,.12,1.43.32"/></g></svg>